<svg data-v-fde0c5aa="" xmlns="http://www.w3.org/2000/svg" viewBox="0 0 300 300" class="iconLeftSlogan"><!----><defs data-v-fde0c5aa=""><!----></defs><rect data-v-fde0c5aa="" fill="transparent" x="0" y="0" width="300px" height="300px" class="logo-background-square"></rect><defs data-v-fde0c5aa=""><!----></defs><g data-v-fde0c5aa="" id="40efcc4c-2f5f-4886-beab-18fec6152c0a" fill="#000000" transform="matrix(1.177415648888361,0,0,1.177415648888361,86.98873722399435,128.00802140272654)"><path d="M1.29 14.08L5.26 14.08C8.23 14.08 10.37 12.01 10.37 9.18C10.37 6.34 8.25 4.28 5.31 4.28L1.29 4.28ZM2.94 12.60L2.94 5.77L5.28 5.77C7.21 5.77 8.71 7.20 8.71 9.20C8.71 11.19 7.25 12.60 5.35 12.60ZM11.34 10.37C11.34 12.61 12.85 14.14 15.15 14.14C16.44 14.14 17.50 13.68 18.23 12.88L17.37 11.97C16.83 12.53 16.09 12.84 15.27 12.84C14.10 12.84 13.22 12.12 12.96 10.98L18.59 10.98C18.79 8.29 17.72 6.58 15.11 6.58C12.89 6.59 11.34 8.12 11.34 10.37ZM12.94 9.80C13.12 8.61 13.94 7.87 15.12 7.87C16.34 7.87 17.14 8.60 17.19 9.80ZM19.10 6.64L21.98 14.08L23.65 14.08L26.50 6.64L24.89 6.64L22.85 12.50L20.78 6.64ZM26.92 10.37C26.92 12.61 28.43 14.14 30.73 14.14C32.02 14.14 33.08 13.68 33.81 12.88L32.96 11.97C32.41 12.53 31.67 12.84 30.86 12.84C29.68 12.84 28.80 12.12 28.55 10.98L34.17 10.98C34.37 8.29 33.31 6.58 30.69 6.58C28.48 6.59 26.92 8.12 26.92 10.37ZM28.52 9.80C28.70 8.61 29.53 7.87 30.70 7.87C31.92 7.87 32.72 8.60 32.77 9.80ZM35.92 14.08L37.53 14.08L37.53 3.70L35.92 3.70ZM39.28 10.36C39.28 12.60 40.87 14.14 43.18 14.14C45.47 14.14 47.05 12.60 47.05 10.36C47.05 8.11 45.47 6.58 43.18 6.58C40.87 6.58 39.28 8.11 39.28 10.36ZM40.89 10.37C40.89 8.95 41.83 7.97 43.18 7.97C44.51 7.97 45.44 8.95 45.44 10.37C45.44 11.82 44.51 12.80 43.18 12.80C41.83 12.80 40.89 11.82 40.89 10.37ZM48.80 16.80L50.41 16.80L50.41 12.80C50.96 13.66 51.86 14.14 53.05 14.14C55.17 14.14 56.57 12.61 56.57 10.39C56.57 8.12 55.13 6.58 53.02 6.58C51.86 6.58 50.96 7.06 50.41 7.92L50.41 6.64L48.80 6.64ZM50.41 10.33C50.41 8.93 51.35 7.92 52.68 7.92C54.01 7.92 54.95 8.95 54.95 10.33C54.95 11.76 54.01 12.77 52.68 12.77C51.35 12.77 50.41 11.77 50.41 10.33ZM58.25 14.08L59.85 14.08L59.85 10.40C59.85 9.10 60.63 8.12 61.92 8.08C63.01 8.08 63.67 8.76 63.67 9.90L63.67 14.08L65.28 14.08L65.28 10.40C65.28 9.10 66.05 8.12 67.33 8.08C68.42 8.08 69.09 8.76 69.09 9.90L69.09 14.08L70.70 14.08L70.70 9.45C70.70 7.67 69.68 6.58 67.97 6.58C66.61 6.58 65.62 7.13 65.14 8.37C64.79 7.24 63.88 6.58 62.55 6.58C61.32 6.58 60.37 7.03 59.85 8.08L59.85 6.64L58.25 6.64ZM72.16 10.37C72.16 12.61 73.67 14.14 75.96 14.14C77.25 14.14 78.32 13.68 79.04 12.88L78.19 11.97C77.64 12.53 76.90 12.84 76.09 12.84C74.91 12.84 74.03 12.12 73.78 10.98L79.41 10.98C79.60 8.29 78.54 6.58 75.92 6.58C73.71 6.59 72.16 8.12 72.16 10.37ZM73.75 9.80C73.93 8.61 74.76 7.87 75.94 7.87C77.15 7.87 77.95 8.60 78.01 9.80ZM81.09 14.08L82.70 14.08L82.70 10.12C82.81 8.96 83.58 8.11 84.81 8.09C85.93 8.09 86.60 8.78 86.60 9.90L86.60 14.08L88.21 14.08L88.21 9.45C88.21 7.67 87.18 6.58 85.44 6.58C84.18 6.58 83.23 7.03 82.70 8.06L82.70 6.64L81.09 6.64ZM89.61 8.12L90.66 8.12L90.66 11.98C90.66 13.51 91.63 14.15 92.75 14.15C93.38 14.15 94.00 13.96 94.58 13.61L94.18 12.38C93.74 12.59 93.39 12.70 93.06 12.70C92.55 12.70 92.26 12.46 92.26 11.69L92.26 8.12L94.46 8.12L94.46 6.92L92.26 6.92L92.26 4.87L90.66 4.87L90.66 6.92L89.61 6.92ZM99.78 14.08L106.95 14.08L106.95 12.60L101.43 12.60L101.43 9.90L106.22 9.90L106.22 8.41L101.43 8.41L101.43 5.77L106.78 5.77L106.78 4.28L99.78 4.28ZM108.86 14.08L110.47 14.08L110.47 10.12C110.59 8.96 111.36 8.11 112.59 8.09C113.71 8.09 114.38 8.78 114.38 9.90L114.38 14.08L115.99 14.08L115.99 9.45C115.99 7.67 114.95 6.58 113.22 6.58C111.96 6.58 111.01 7.03 110.47 8.06L110.47 6.64L108.86 6.64ZM117.45 10.12C117.45 12.26 118.79 13.72 120.81 13.72C121.93 13.72 122.77 13.27 123.27 12.46L123.27 13.40C123.27 14.69 122.35 15.51 120.93 15.51C120.02 15.51 119.29 15.22 118.59 14.70L117.91 15.86C118.82 16.48 119.84 16.84 121.00 16.84C123.34 16.84 124.87 15.50 124.87 13.36L124.87 6.64L123.27 6.64L123.27 7.84C122.75 7.03 121.90 6.57 120.75 6.58C118.78 6.59 117.45 8.02 117.45 10.12ZM118.96 10.16C118.97 8.83 119.85 7.88 121.13 7.88C122.39 7.88 123.27 8.82 123.27 10.16C123.27 11.51 122.39 12.46 121.13 12.46C119.84 12.46 118.97 11.51 118.96 10.16ZM126.97 4.51C126.97 5.07 127.37 5.47 127.90 5.47C128.44 5.47 128.84 5.07 128.84 4.51C128.84 3.93 128.44 3.53 127.90 3.53C127.37 3.53 126.97 3.93 126.97 4.51ZM127.11 14.08L128.70 14.08L128.70 6.64L127.11 6.64ZM131.08 14.08L132.69 14.08L132.69 10.12C132.80 8.96 133.57 8.11 134.81 8.09C135.93 8.09 136.60 8.78 136.60 9.90L136.60 14.08L138.21 14.08L138.21 9.45C138.21 7.67 137.17 6.58 135.44 6.58C134.18 6.58 133.22 7.03 132.69 8.06L132.69 6.64L131.08 6.64ZM139.66 10.37C139.66 12.61 141.18 14.14 143.47 14.14C144.76 14.14 145.82 13.68 146.55 12.88L145.70 11.97C145.15 12.53 144.41 12.84 143.60 12.84C142.42 12.84 141.54 12.12 141.29 10.98L146.92 10.98C147.11 8.29 146.05 6.58 143.43 6.58C141.22 6.59 139.66 8.12 139.66 10.37ZM141.26 9.80C141.44 8.61 142.27 7.87 143.44 7.87C144.66 7.87 145.46 8.60 145.52 9.80Z"></path></g><defs data-v-fde0c5aa=""><linearGradient data-v-fde0c5aa="" gradientTransform="rotate(25)" id="1f50d736-d439-4104-809c-f740132b0723" x1="0%" y1="0%" x2="100%" y2="0%"><stop data-v-fde0c5aa="" offset="0%" stop-color="#007DE8" stop-opacity="1"></stop><stop data-v-fde0c5aa="" offset="100%" stop-color="#A1C3DB" stop-opacity="1"></stop></linearGradient></defs><g data-v-fde0c5aa="" id="5ac3d32f-bdc4-4abd-ae51-e53dd76a7f67" stroke="none" fill="url(#1f50d736-d439-4104-809c-f740132b0723)" transform="matrix(0.27953239865863333,0,0,0.27953239865863333,39.867222137295435,132.12390449201132)"><path d="M92.2 19c.1.1.3.2.5.2s.4-.1.5-.2c.3-.3.3-.8 0-1l-1.6-1.6c-.3-.3-.8-.3-1 0-.3.3-.3.8 0 1l1.6 1.6zM97.4 24.2c.1.1.3.2.5.2s.4-.1.5-.2c.3-.3.3-.8 0-1l-1.6-1.6c-.3-.3-.8-.3-1 0-.3.3-.3.8 0 1l1.6 1.6zM91.1 24.4c.2 0 .4-.1.5-.2l1.6-1.6c.3-.3.3-.8 0-1-.3-.3-.8-.3-1 0l-1.6 1.6c-.3.3-.3.8 0 1 .2.1.3.2.5.2zM96.3 19.2c.2 0 .4-.1.5-.2l1.6-1.6c.3-.3.3-.8 0-1-.3-.3-.8-.3-1 0L95.8 18c-.3.3-.3.8 0 1 .2.1.3.2.5.2zM1.8 112.3c-.3-.3-.8-.3-1 0s-.3.8 0 1l1.6 1.6c.1.1.3.2.5.2s.4-.1.5-.2c.3-.3.3-.8 0-1l-1.6-1.6zM7 117.5c-.3-.3-.8-.3-1 0-.3.3-.3.8 0 1l1.6 1.6c.1.1.3.2.5.2s.4-.1.5-.2c.3-.3.3-.8 0-1L7 117.5zM2.3 117.5l-1.6 1.6c-.3.3-.3.8 0 1 .1.1.3.2.5.2s.4-.1.5-.2l1.6-1.6c.3-.3.3-.8 0-1-.2-.3-.7-.3-1 0zM7.5 112.3l-1.6 1.6c-.3.3-.3.8 0 1 .1.1.3.2.5.2s.4-.1.5-.2l1.6-1.6c.3-.3.3-.8 0-1-.2-.3-.7-.3-1 0zM117.9 64.3c-.3.3-.3.8 0 1l1.6 1.6c.1.1.3.2.5.2s.4-.1.5-.2c.3-.3.3-.8 0-1l-1.6-1.6c-.3-.3-.8-.3-1 0zM124.7 72.1c.1.1.3.2.5.2s.4-.1.5-.2c.3-.3.3-.8 0-1l-1.6-1.6c-.3-.3-.8-.3-1 0-.3.3-.3.8 0 1l1.6 1.6zM119.5 69.5l-1.6 1.6c-.3.3-.3.8 0 1 .1.1.3.2.5.2s.4-.1.5-.2l1.6-1.6c.3-.3.3-.8 0-1-.3-.3-.8-.3-1 0zM123.6 67.1c.2 0 .4-.1.5-.2l1.6-1.6c.3-.3.3-.8 0-1-.3-.3-.8-.3-1 0l-1.6 1.6c-.3.3-.3.8 0 1 .1.2.3.2.5.2zM4.6 40.7c.4 0 .7-.3.7-.7V28.2c0-.4-.3-.7-.7-.7-.4 0-.7.3-.7.7V40c0 .4.3.7.7.7zM4.6 50.5c.4 0 .7-.3.7-.7v-4.2c0-.4-.3-.7-.7-.7-.4 0-.7.3-.7.7v4.2c0 .3.3.7.7.7zM117.9 20.2c.4 0 .7-.3.7-.7V7.7c0-.4-.3-.7-.7-.7-.4 0-.7.3-.7.7v11.8c-.1.4.3.7.7.7zM117.9 30c.4 0 .7-.3.7-.7V25c0-.4-.3-.7-.7-.7-.4 0-.7.3-.7.7v4.2c-.1.5.3.8.7.8zM56.8 21c1.9 0 3.5-1.6 3.5-3.5S58.7 14 56.8 14s-3.5 1.6-3.5 3.5 1.6 3.5 3.5 3.5zm0-5.5c1.1 0 2 .9 2 2s-.9 2-2 2-2-.9-2-2 .9-2 2-2zM48.7 111.5c-1.9 0-3.5 1.6-3.5 3.5s1.6 3.5 3.5 3.5 3.5-1.6 3.5-3.5-1.6-3.5-3.5-3.5zm0 5.5c-1.1 0-2-.9-2-2s.9-2 2-2 2 .9 2 2-.9 2-2 2zM8.1 81.2c0-1.9-1.6-3.5-3.5-3.5s-3.5 1.6-3.5 3.5 1.6 3.5 3.5 3.5c2 0 3.5-1.6 3.5-3.5zm-3.5 2c-1.1 0-2-.9-2-2s.9-2 2-2 2 .9 2 2-.8 2-2 2zM18.1 13c0 .4.3.7.7.7h15.4c.4 0 .7-.3.7-.7s-.3-.7-.7-.7H18.8c-.4-.1-.7.3-.7.7zM8.8 13.7h5c.4 0 .7-.3.7-.7s-.3-.7-.7-.7h-5c-.4-.1-.8.3-.8.7s.4.7.8.7zM8.8 8.4h10.8c.4 0 .7-.3.7-.7S20 7 19.6 7H8.8c-.4-.1-.8.3-.8.7s.4.7.8.7zM24.2 8.4h3.5c.4 0 .7-.3.7-.7s-.4-.8-.8-.8h-3.5c-.4 0-.7.3-.7.7s.4.8.8.8zM117.4 115c0-.4-.3-.7-.7-.7h-15.4c-.4 0-.7.3-.7.7 0 .4.3.7.7.7h15.4c.4.1.7-.3.7-.7zM121 115c0 .4.3.7.7.7h5c.4 0 .7-.3.7-.7 0-.4-.3-.7-.7-.7h-5c-.3 0-.7.3-.7.7zM126.8 119.6H116c-.4 0-.7.3-.7.7 0 .4.3.7.7.7h10.8c.4 0 .7-.3.7-.7 0-.4-.3-.7-.7-.7zM111.4 119.6h-3.5c-.4 0-.7.3-.7.7 0 .4.3.7.7.7h3.5c.4 0 .7-.3.7-.7 0-.4-.3-.7-.7-.7zM21.5 38.2c-2.9 0-5.3 2.4-5.3 5.3v51.2c0 .4.3.7.7.7h95.3c.4 0 .7-.3.7-.7V43.5c0-2.9-2.4-5.3-5.3-5.3h-27c-1.1-2.2-2.5-4.1-4.2-5.9-4.3-4.3-9.9-6.6-15.9-6.6S48.8 28 44.6 32.3c-1.7 1.7-3.2 3.7-4.2 5.9H21.5zm86.2 1.5c2.1 0 3.8 1.7 3.8 3.8V94H17.6V43.5c0-2.1 1.7-3.8 3.8-3.8h18.2c-.1.3-.2.5-.3.8-.5 1.4-.9 3-1.2 4.6-.1 1-.2 2-.2 3.1 0 2.9.5 5.7 1.5 8.3 1.1 2.9 2.8 5.5 5.1 7.8a22.5 22.5 0 0 0 15.9 6.6c4.7 0 9.5-1.5 13.5-4.6l18.9 22.4c.6.7 1.4 1 2.2 1.1h.1c.8 0 1.6-.3 2.2-.9l3.6-3.6c.6-.6.9-1.4.9-2.3 0-.9-.4-1.7-1.1-2.2l-22.2-19c1.2-1.6 2.3-3.4 3-5.3 1-2.6 1.6-5.4 1.5-8.3 0-1.1-.1-2.1-.2-3.1-.2-1.6-.6-3.1-1.2-4.6-.1-.3-.2-.5-.3-.8h26.4zM76.4 64.2c.4-.4.7-.8 1-1.1l.1-.1 22.4 18.9c.3.3.5.7.6 1.2 0 .4-.1.9-.5 1.2l-3.6 3.6c-.3.3-.7.5-1.2.5s-.9-.2-1.2-.6L75.2 65.4c.1 0 .1-.1.1-.1.4-.4.8-.7 1.1-1.1zM45.6 33.4c4-4 9.3-6.2 14.9-6.2s10.9 2.2 14.9 6.2c2.2 2.2 3.8 4.7 4.9 7.6.5 1.4.9 2.8 1.1 4.3.1.9.2 1.9.2 2.9 0 2.7-.5 5.3-1.4 7.7-.8 2-1.9 3.9-3.2 5.5-.4.4-.7.9-1.2 1.3-.1.1-.2.3-.4.4-.3.3-.6.6-1 .9-.2.2-.5.4-.8.6-8.4 6.7-20.5 6.1-28.1-1.5-2.1-2.1-3.7-4.5-4.7-7.3-1-2.5-1.4-5.1-1.4-7.7 0-1 .1-2 .2-2.9.2-1.5.6-2.9 1.1-4.3 1.1-2.8 2.7-5.3 4.9-7.5zM121.8 102.4l1.1-1.9c.2-.4.2-.9 0-1.3s-.7-.7-1.1-.7H7.3c-.5 0-.9.3-1.1.7-.2.4-.2.9 0 1.3l1.1 1.9c1.9 3.2 5.5 5.2 9.2 5.2h96c3.8 0 7.3-2 9.3-5.2zm-113.2-.7l-1-1.6h113.8l-1 1.6c-1.7 2.8-4.7 4.5-8 4.5h-96c-3.1 0-6.1-1.8-7.8-4.5z"></path><path d="M60.5 54.2c.3 0 .7 0 1-.1 1.6-.3 2.9-1.1 3.8-2.4.9-1.3 1.3-2.9 1-4.4-.6-3.2-3.6-5.4-6.9-4.9-3.2.6-5.4 3.6-4.9 6.9.6 2.9 3.1 4.9 6 4.9zm-.8-10.3c.3 0 .5-.1.8-.1.9 0 1.8.3 2.6.8 1 .7 1.6 1.7 1.8 2.9.2 1.2-.1 2.4-.8 3.3-.7 1-1.7 1.6-2.9 1.8-2.4.4-4.7-1.2-5.2-3.7-.3-2.3 1.3-4.6 3.7-5z"></path><path d="M45.3 48.6l1-.1c.3 0 .7.1.9.3.3.2.4.5.5.9 0 .3-.1.7-.3.9-.2.3-.5.4-.9.5l-1 .1c-.2 0-.4.1-.5.3-.1.2-.2.4-.1.6.7 2.7 2 5.2 3.9 7.2.1.2.4.3.6.2.2 0 .4-.1.5-.3l.7-.8c.4-.5 1.3-.6 1.8-.2.6.4.6 1.3.2 1.8l-.6.9c-.1.2-.2.4-.2.6 0 .2.2.4.3.5 2.4 1.4 5.1 2.2 7.9 2.3.2 0 .4-.1.5-.2.1-.2.2-.4.2-.6l-.1-1c0-.3.1-.7.3-.9.2-.3.5-.4.9-.5.7-.1 1.3.4 1.4 1.1l.1 1c0 .2.1.4.3.5.2.1.4.2.6.1 2.7-.7 5.2-2 7.2-3.9.2-.1.2-.4.2-.6 0-.2-.1-.4-.3-.5l-.8-.7c-.5-.4-.6-1.3-.2-1.8.4-.5 1.3-.6 1.8-.2l.8.7c.2.1.4.2.6.2.2 0 .4-.2.5-.3 1.4-2.4 2.2-5.1 2.3-7.9 0-.2-.1-.4-.2-.6-.2-.1-.4-.2-.6-.2l-1 .1c-.7.1-1.3-.4-1.4-1.1 0-.3.1-.7.3-.9.2-.3.5-.4.9-.5l1-.1c.2 0 .4-.1.5-.3.1-.2.2-.4.1-.6-.7-2.7-2-5.2-3.9-7.2-.1-.2-.3-.2-.6-.2-.2 0-.4.1-.5.3l-.7.8c-.4.6-1.3.6-1.8.2-.5-.4-.6-1.3-.2-1.8l.7-.8c.1-.2.2-.4.2-.6 0-.2-.2-.4-.3-.5-2.4-1.4-5.1-2.2-7.9-2.3-.2 0-.4.1-.6.2-.1.2-.2.4-.2.6l.1 1c0 .3-.1.7-.3.9-.2.3-.5.4-.9.5-.3 0-.7-.1-.9-.3-.3-.2-.4-.5-.5-.9l-.1-1c0-.2-.1-.4-.3-.5-.2-.1-.4-.2-.6-.1-2.7.7-5.2 2-7.2 3.9-.2.1-.2.4-.2.6 0 .2.1.4.3.5l.8.7c.6.4.6 1.3.2 1.8-.4.6-1.3.6-1.8.2l-.8-.7c-.2-.1-.4-.2-.6-.2-.2 0-.4.2-.5.3-1.4 2.4-2.2 5.1-2.3 7.9 0 .2.1.4.2.6.2.1.4.2.6.1zm2.4-7.1l.1.1c1.2.9 2.9.8 3.9-.4.9-1.2.8-2.9-.4-3.9l-.1-.1c1.5-1.3 3.2-2.2 5.1-2.8v.2c.1.7.4 1.4 1 1.9s1.3.7 2 .6c.7-.1 1.4-.4 1.9-1s.7-1.3.6-2v-.2c1.9.2 3.8.7 5.6 1.6l-.1.1c-.9 1.2-.8 2.9.4 3.9 1.2.9 2.9.8 3.9-.4l.1-.1c1.3 1.5 2.2 3.2 2.8 5.1h-.2c-.7.1-1.4.4-1.9 1s-.7 1.3-.6 2c.2 1.5 1.5 2.6 3 2.4h.2c-.2 1.9-.7 3.8-1.6 5.6l-.2-.1c-1.2-.9-2.9-.8-3.9.4-.9 1.2-.8 2.9.4 3.9l.1.1c-1.5 1.3-3.2 2.2-5.1 2.8V62c-.2-1.5-1.5-2.6-3-2.4-.7.1-1.4.4-1.9 1s-.7 1.3-.6 2v.2c-1.9-.2-3.8-.7-5.6-1.6l.1-.1c.9-1.2.8-2.9-.4-3.9-1.2-.9-2.9-.8-3.9.4l-.1.1c-1.3-1.5-2.2-3.2-2.8-5.1h.2c.7-.1 1.4-.4 1.9-1s.7-1.3.6-2c-.1-.7-.4-1.4-1-1.9s-1.3-.7-2-.6H46c.2-2 .8-3.8 1.7-5.6zM49.3 76.4c-.3-.2-.8-.1-1 .2-.2.3-.1.8.2 1l6.7 4.2-6.7 4.2c-.3.2-.5.7-.2 1 .1.2.4.3.6.3.1 0 .3 0 .4-.1l7.7-4.8c.2-.1.3-.4.3-.6s-.1-.5-.3-.6l-7.7-4.8zM33.5 76.6c-.2-.3-.7-.5-1-.2l-7.7 4.8c-.2.1-.3.4-.3.6s.1.5.3.6l7.7 4.8c.1.1.3.1.4.1.2 0 .5-.1.6-.3.2-.3.1-.8-.2-1l-6.7-4.2 6.7-4.2c.3-.2.4-.6.2-1zM43.9 73.8c-.4-.1-.8 0-.9.4l-5.5 14.5c-.1.4 0 .8.4.9h.3c.3 0 .6-.2.7-.5l5.5-14.5c.1-.3-.1-.7-.5-.8z"></path></g><defs data-v-fde0c5aa=""><!----></defs><g data-v-fde0c5aa="" id="24f3373a-d815-4c5a-957f-68a957afd9f4" fill="#000000" transform="matrix(0.44535384985354975,0,0,0.44535384985354975,88.30719412574784,156.54417518333614)"><path d="M0.45 12.39C0.45 12.63 0.48 12.68 0.67 12.68C0.91 12.68 1.41 12.64 1.83 12.64C2.25 12.64 2.74 12.68 3.07 12.68C3.23 12.68 3.26 12.61 3.26 12.40C3.26 12.24 3.23 12.18 3.07 12.18L2.10 12.18C2.04 12.18 2.03 11.54 2.03 10.79C2.03 8.96 2.07 6.13 2.14 4.28C2.17 3.88 2.20 3.91 2.34 4.27L5.60 12.32C5.70 12.54 5.77 12.74 5.88 12.74C5.98 12.74 6.05 12.63 6.13 12.45C6.47 11.79 6.65 11.75 6.92 11.09L9.51 4.47C9.63 4.16 9.67 4.02 9.69 4.47C9.72 5.66 9.76 8.47 9.76 9.74C9.76 10.99 9.72 12.18 9.66 12.18L9.03 12.18C8.81 12.18 8.74 12.19 8.74 12.39C8.74 12.63 8.76 12.68 8.96 12.68C9.16 12.68 9.86 12.64 10.46 12.64C10.88 12.64 11.63 12.68 11.96 12.68C12.12 12.68 12.15 12.61 12.15 12.40C12.15 12.22 12.10 12.18 11.93 12.18L11.20 12.18C11.09 12.18 10.99 8.44 10.99 6.03L10.99 4.77C10.99 4.17 11.02 3.77 11.06 3.70L11.72 3.70C11.94 3.70 11.98 3.68 11.98 3.49C11.98 3.25 11.97 3.19 11.77 3.19C11.45 3.19 10.77 3.23 10.35 3.23L9.67 3.23C9.45 3.23 9.42 3.29 9.31 3.58L6.57 10.72C6.48 10.95 6.45 11.02 6.34 10.74L3.40 3.40C3.33 3.22 3.28 3.19 3.14 3.19C3.05 3.19 2.56 3.23 2.25 3.23C1.75 3.23 0.90 3.19 0.70 3.19C0.56 3.19 0.56 3.26 0.56 3.47C0.56 3.64 0.56 3.70 0.70 3.70L1.40 3.70C1.67 3.70 1.67 3.72 1.67 3.84C1.67 4.82 1.46 9.94 1.41 10.79C1.37 11.55 1.37 12.18 1.32 12.18L0.74 12.18C0.52 12.18 0.45 12.19 0.45 12.39ZM19.91 12.39C19.91 12.63 19.91 12.68 20.10 12.68C20.27 12.68 20.59 12.64 21.17 12.64C21.78 12.64 22.33 12.68 22.48 12.68C22.65 12.68 22.65 12.61 22.65 12.40C22.65 12.24 22.65 12.18 22.48 12.18L21.41 12.18C21.41 12.18 21.39 12.18 21.39 12.17C21.41 11.87 22.18 9.90 22.53 9.02C22.60 8.83 22.61 8.79 22.82 8.79L25.65 8.79C25.79 8.79 25.79 8.81 25.86 9.03C26.12 9.77 26.84 11.89 26.84 12.17C26.84 12.18 26.82 12.18 26.82 12.18L26.05 12.18C25.83 12.18 25.82 12.19 25.82 12.39C25.82 12.63 25.83 12.68 26.00 12.68C26.32 12.68 27.19 12.64 27.61 12.64C28.03 12.64 28.70 12.68 28.91 12.68C29.05 12.68 29.06 12.61 29.06 12.40C29.06 12.24 29.05 12.18 28.91 12.18L28.42 12.18C28.32 12.18 27.30 9.34 26.74 7.78L25.06 3.07C25.05 3.00 24.98 2.94 24.89 2.94C24.77 2.94 24.67 3.16 24.58 3.35C24.43 3.71 24.19 3.84 24.08 4.13L22.60 7.57C22.41 8.01 20.71 12.18 20.58 12.18L20.16 12.18C19.94 12.18 19.91 12.19 19.91 12.39ZM22.81 8.33C22.81 8.30 22.83 8.23 22.88 8.13L24.25 4.77C24.29 4.66 24.32 4.61 24.35 4.61C24.36 4.61 24.37 4.63 24.42 4.77L25.58 8.18C25.61 8.25 25.62 8.29 25.62 8.32C25.62 8.36 25.59 8.37 25.49 8.37L22.99 8.37C22.81 8.37 22.81 8.34 22.81 8.33ZM36.82 12.39C36.82 12.63 36.83 12.68 37.03 12.68C37.35 12.68 38.25 12.64 38.67 12.64C39.09 12.64 40.04 12.68 40.36 12.68C40.53 12.68 40.54 12.61 40.54 12.40C40.54 12.24 40.52 12.18 40.35 12.18L39.34 12.18C39.24 12.18 39.21 10.12 39.21 8.46C39.21 8.30 39.21 8.30 39.38 8.30L39.65 8.30C39.86 8.30 39.86 8.32 39.93 8.40L42.97 12.00C43.06 12.11 43.13 12.18 42.92 12.18L42.46 12.18C42.28 12.18 42.21 12.19 42.21 12.39C42.21 12.63 42.21 12.68 42.41 12.68C42.73 12.68 43.43 12.64 43.85 12.64C44.27 12.64 44.95 12.68 45.28 12.68C45.44 12.68 45.44 12.61 45.44 12.40C45.44 12.24 45.44 12.18 45.28 12.18L45.05 12.18C44.87 12.18 44.77 12.10 44.65 11.96L40.88 7.62C40.74 7.45 40.71 7.50 40.84 7.36C41.29 6.83 43.82 3.77 43.89 3.77L44.56 3.77C44.79 3.77 44.81 3.75 44.81 3.56C44.81 3.32 44.81 3.26 44.62 3.26C44.42 3.26 43.97 3.30 43.46 3.30C42.92 3.30 42.45 3.26 42.22 3.26C42.04 3.26 41.94 3.28 41.94 3.51C41.94 3.75 42.06 3.77 42.22 3.77L42.78 3.77C42.95 3.77 42.95 3.84 42.84 3.99C42.31 4.66 39.96 7.92 39.66 7.92L39.35 7.92C39.21 7.92 39.21 7.88 39.21 7.69L39.21 5.94C39.21 5.21 39.28 3.77 39.38 3.77L40.15 3.77C40.38 3.77 40.42 3.75 40.42 3.56C40.42 3.32 40.40 3.26 40.21 3.26C39.89 3.26 39.12 3.30 38.70 3.30C38.11 3.30 37.45 3.26 37.23 3.26C37.04 3.26 36.95 3.28 36.95 3.51C36.95 3.75 37.06 3.77 37.23 3.77L37.87 3.77C37.93 3.77 37.95 4.86 37.95 5.78L37.95 9.84C37.95 11.00 37.94 12.18 37.86 12.18L37.11 12.18C36.89 12.18 36.82 12.19 36.82 12.39ZM52.92 12.39C52.92 12.63 52.95 12.68 53.14 12.68C53.47 12.68 54.43 12.64 54.85 12.64C55.27 12.64 59.78 12.68 60.10 12.68C60.23 12.68 60.38 12.66 60.38 12.49C60.38 12.07 60.42 11.23 60.42 10.53C60.42 10.39 60.27 10.39 60.14 10.39C60.03 10.39 59.91 10.39 59.91 10.51C59.89 11.06 59.89 11.41 59.86 11.76C59.84 12.01 59.84 12.04 59.74 12.04C59.58 12.04 56.95 12.08 55.45 12.08C55.38 12.08 55.34 10.11 55.30 8.26C55.30 8.06 55.34 8.09 55.48 8.09L57.76 8.09C58.46 8.09 58.49 8.20 58.49 8.30L58.49 9.00C58.49 9.14 58.67 9.14 58.79 9.14C58.88 9.14 59.01 9.13 59.01 9.02C59.01 8.83 58.98 8.33 58.98 7.83C58.98 7.32 59.01 6.83 59.01 6.71C59.01 6.59 58.87 6.58 58.77 6.58C58.66 6.58 58.49 6.59 58.49 6.72L58.49 7.45C58.49 7.62 58.04 7.63 57.76 7.63L55.43 7.63C55.31 7.63 55.30 7.63 55.30 7.45C55.29 6.75 55.27 6.06 55.27 5.46C55.27 5.12 55.27 3.71 55.36 3.71C56.59 3.71 59.09 3.75 59.09 3.81C59.09 3.99 59.05 4.83 59.05 4.89C59.05 5.04 59.12 5.10 59.30 5.10C59.50 5.10 59.57 5.08 59.57 4.94C59.57 3.85 59.63 3.36 59.63 3.09C59.63 2.91 59.54 2.90 59.35 2.90C59.15 2.90 59.15 2.95 59.12 3.11C59.11 3.25 59.18 3.25 58.27 3.25C57.65 3.25 55.51 3.29 54.74 3.29C54.25 3.29 53.31 3.25 53.21 3.25C53.09 3.25 53.03 3.30 53.03 3.49C53.03 3.72 53.10 3.74 53.27 3.74L53.93 3.74C53.98 3.74 54.05 4.79 54.05 5.71C54.05 5.80 54.11 8.27 54.11 9.83L54.11 11.17C54.11 11.84 54.08 12.18 54.05 12.18L53.20 12.18C52.98 12.18 52.92 12.21 52.92 12.39ZM77.77 3.44C77.77 3.68 77.85 3.70 78.02 3.70L78.43 3.70C78.55 3.70 80.81 7.74 81.21 8.50C81.27 8.60 81.31 8.65 81.31 8.81C81.31 10.50 81.30 12.18 81.17 12.18L80.46 12.18C80.23 12.18 80.19 12.19 80.19 12.39C80.19 12.63 80.21 12.68 80.40 12.68C80.60 12.68 81.41 12.64 82.00 12.64C82.82 12.64 83.36 12.68 83.68 12.68C83.85 12.68 83.87 12.61 83.87 12.40C83.87 12.24 83.85 12.18 83.68 12.18L82.71 12.18C82.61 12.18 82.59 9.72 82.59 8.22C82.59 8.18 82.59 8.15 82.63 8.09C83.17 7.22 85.12 3.70 85.19 3.70L85.67 3.70C85.83 3.70 85.93 3.68 85.93 3.44C85.93 3.22 85.85 3.19 85.67 3.19C85.44 3.19 85.20 3.23 84.60 3.23C84.01 3.23 83.68 3.19 83.51 3.19C83.31 3.19 83.27 3.25 83.27 3.49C83.27 3.68 83.34 3.70 83.57 3.70L84.29 3.70C84.31 3.70 84.32 3.71 84.32 3.74C84.32 4.05 82.75 6.99 82.38 7.71C82.26 7.92 82.26 7.88 82.15 7.67C81.75 6.89 80.46 4.56 80.16 3.85C80.11 3.71 80.09 3.70 80.28 3.70L81.10 3.70C81.33 3.70 81.35 3.68 81.35 3.49C81.35 3.25 81.31 3.19 81.16 3.19C80.92 3.19 80.30 3.23 79.51 3.23C78.69 3.23 78.20 3.19 78.02 3.19C77.84 3.19 77.77 3.21 77.77 3.44ZM93.06 8.15C93.06 11.17 95.40 12.80 97.65 12.80C100.44 12.80 102.41 10.89 102.41 8.06C102.41 5.33 100.66 3.11 97.86 3.11C95.26 3.11 93.06 5.10 93.06 8.15ZM94.46 7.77C94.46 5.64 95.75 3.58 97.72 3.58C99.96 3.58 101.04 5.81 101.04 7.94C101.04 10.08 99.93 12.32 97.66 12.32C95.68 12.32 94.46 10.28 94.46 7.77ZM110.52 3.51C110.52 3.75 110.60 3.77 110.77 3.77L111.30 3.77C111.36 3.77 111.36 4.12 111.36 4.55C111.36 5.66 111.34 8.96 111.34 9.42C111.34 11.13 111.59 12.80 114.45 12.80C115.53 12.80 116.69 12.38 117.35 12.00C117.60 11.86 117.89 11.72 117.98 11.72C118.24 11.72 118.51 12.74 118.85 12.74C119.17 12.74 119.18 12.35 119.18 12.25C119.18 11.96 119.24 10.08 119.28 8.16C119.34 6.12 119.32 3.77 119.43 3.77L119.76 3.77C119.98 3.77 120.05 3.75 120.05 3.56C120.05 3.32 120.01 3.26 119.81 3.26C119.67 3.26 119.14 3.30 118.72 3.30C118.30 3.30 117.50 3.26 117.28 3.26C117.10 3.26 117.00 3.28 117.00 3.51C117.00 3.75 117.11 3.77 117.28 3.77L117.98 3.77C118.05 3.77 118.06 4.30 118.06 4.87L118.06 9.14C118.06 11.19 118.06 11.12 117.73 11.34C117.33 11.61 116.52 12.08 115.35 12.08C113.37 12.08 112.57 11.17 112.57 9.41C112.57 8.82 112.64 3.77 112.76 3.77L113.67 3.77C113.89 3.77 113.93 3.75 113.93 3.56C113.93 3.32 113.92 3.26 113.72 3.26C113.40 3.26 112.52 3.30 112.10 3.30C111.68 3.30 110.99 3.26 110.77 3.26C110.59 3.26 110.52 3.28 110.52 3.51ZM128.09 3.51C128.09 3.72 128.16 3.79 128.35 3.79L129.16 3.77C129.26 3.77 129.30 6.61 129.30 8.55L129.30 10.42C129.30 11.30 129.29 12.18 129.25 12.18L128.65 12.18C128.42 12.18 128.35 12.19 128.35 12.39C128.35 12.63 128.39 12.68 128.59 12.68C128.72 12.68 129.54 12.64 129.96 12.64C130.38 12.64 131.15 12.68 131.47 12.68C131.64 12.68 131.67 12.61 131.67 12.40C131.67 12.24 131.64 12.18 131.47 12.18L130.66 12.18C130.59 12.18 130.51 9.18 130.51 8.37C130.51 8.30 130.51 8.26 130.62 8.26C131.01 8.26 131.61 8.27 131.91 8.27C134.15 8.32 134.29 10.00 134.29 11.68L134.29 12.49C134.29 12.61 134.34 12.64 134.44 12.64C134.44 12.64 135.88 12.68 136.36 12.68C136.53 12.68 136.58 12.64 136.58 12.53C136.58 12.24 136.53 12.18 136.37 12.18L135.73 12.18C135.63 12.18 135.60 12.14 135.58 11.31C135.49 8.99 134.12 8.34 133.21 8.05C133.07 8.01 133.10 8.01 133.21 7.95C133.80 7.69 135.11 6.94 135.11 5.63C135.11 3.63 133.42 3.21 132.02 3.21C131.70 3.21 130.41 3.29 129.99 3.29C129.57 3.29 128.59 3.26 128.37 3.26C128.18 3.26 128.09 3.28 128.09 3.51ZM130.51 7.80L130.51 4.40C130.51 4.05 130.54 3.68 130.58 3.68C130.79 3.65 131.07 3.65 131.29 3.65C132.59 3.65 133.84 4.47 133.84 5.82C133.84 6.99 133.29 7.57 132.64 7.88C132.59 7.90 132.55 7.90 132.48 7.90C132.01 7.88 131.29 7.88 130.69 7.87C130.52 7.87 130.51 7.85 130.51 7.80ZM154.07 5.77C154.07 9.07 159.05 8.20 159.05 10.65C159.05 11.59 158.21 12.31 157.23 12.31C156.41 12.31 154.81 11.83 154.78 11.47L154.70 10.15C154.69 9.97 154.62 9.91 154.43 9.91L154.36 9.91C154.15 9.91 154.15 10.00 154.15 10.12C154.15 10.32 154.27 11.66 154.29 12.17C154.31 12.38 155.57 12.85 157.11 12.85C158.68 12.85 160.29 11.87 160.29 10.11C160.29 6.79 155.32 7.87 155.32 5.32C155.32 4.31 156.10 3.56 157.14 3.56C158.16 3.56 159.25 4.58 159.25 4.89C159.25 5.01 159.21 5.73 159.21 5.78C159.21 5.92 159.25 5.99 159.52 5.99C159.75 5.99 159.77 5.94 159.77 5.75C159.77 5.04 159.85 3.68 159.85 3.53C159.85 3.30 159.81 3.29 159.54 3.29C159.32 3.29 159.31 3.32 159.29 3.53C159.29 3.61 159.28 3.78 159.24 3.78C159.18 3.78 159.10 3.74 159.03 3.68C158.23 3.14 157.61 3.08 157.11 3.08C155.58 3.08 154.07 4.17 154.07 5.77ZM168.11 12.39C168.11 12.63 168.15 12.68 168.35 12.68C168.67 12.68 169.43 12.64 170.14 12.64C170.80 12.64 171.60 12.68 171.82 12.68C171.99 12.68 172.02 12.61 172.02 12.40C172.02 12.24 171.99 12.18 171.82 12.18L170.86 12.18C170.76 12.18 170.73 9.55 170.73 7.76L170.73 5.87C170.73 5.14 170.76 3.70 170.86 3.70L171.77 3.70C171.99 3.70 172.02 3.68 172.02 3.49C172.02 3.25 171.99 3.19 171.82 3.19C171.50 3.19 170.83 3.23 170.17 3.23C169.36 3.23 168.64 3.19 168.42 3.19C168.24 3.19 168.17 3.21 168.17 3.44C168.17 3.68 168.25 3.70 168.42 3.70L169.34 3.70C169.39 3.70 169.46 4.79 169.46 5.71L169.46 7.08C169.46 8.92 169.44 12.18 169.33 12.18L168.41 12.18C168.18 12.18 168.11 12.19 168.11 12.39ZM179.65 5.01C179.65 5.17 179.83 5.17 179.96 5.17C180.11 5.17 180.15 5.15 180.17 4.97L180.28 3.89C180.29 3.81 180.84 3.75 181.59 3.75L183.58 3.75C183.64 3.75 183.67 4.35 183.67 4.97C183.67 6.43 183.61 12.18 183.48 12.18L182.62 12.18C182.39 12.18 182.35 12.19 182.35 12.39C182.35 12.63 182.36 12.68 182.56 12.68C182.88 12.68 183.86 12.64 184.28 12.64C184.70 12.64 185.64 12.68 185.96 12.68C186.13 12.68 186.16 12.61 186.16 12.40C186.16 12.24 186.13 12.18 185.96 12.18L184.97 12.18C184.94 12.18 184.94 11.76 184.94 11.31C184.94 9.56 185.02 5.96 185.02 5.92C185.04 5.18 185.04 3.75 185.14 3.75L186.75 3.75C187.46 3.75 188.29 3.78 188.29 3.85C188.29 3.99 188.24 4.90 188.24 4.97C188.24 5.12 188.31 5.17 188.50 5.17C188.69 5.17 188.76 5.17 188.76 5.03C188.76 3.93 188.82 3.40 188.82 3.14C188.82 2.94 188.73 2.94 188.54 2.94C188.38 2.94 188.33 2.98 188.31 3.16C188.31 3.23 187.67 3.28 186.83 3.28L181.83 3.28C181.17 3.28 180.36 3.28 180.36 3.21L180.36 3.07C180.36 2.94 180.24 2.94 180.14 2.94C179.91 2.94 179.89 3.00 179.87 3.19C179.82 3.89 179.65 4.97 179.65 5.01ZM196.57 12.39C196.57 12.63 196.60 12.68 196.80 12.68C197.12 12.68 198.09 12.64 198.51 12.64C198.93 12.64 203.43 12.68 203.76 12.68C203.88 12.68 204.04 12.66 204.04 12.49C204.04 12.07 204.08 11.23 204.08 10.53C204.08 10.39 203.92 10.39 203.80 10.39C203.69 10.39 203.56 10.39 203.56 10.51C203.55 11.06 203.55 11.41 203.52 11.76C203.49 12.01 203.49 12.04 203.39 12.04C203.24 12.04 200.61 12.08 199.11 12.08C199.04 12.08 199.00 10.11 198.95 8.26C198.95 8.06 199.00 8.09 199.14 8.09L201.42 8.09C202.12 8.09 202.15 8.20 202.15 8.30L202.15 9.00C202.15 9.14 202.33 9.14 202.44 9.14C202.54 9.14 202.66 9.13 202.66 9.02C202.66 8.83 202.64 8.33 202.64 7.83C202.64 7.32 202.66 6.83 202.66 6.71C202.66 6.59 202.52 6.58 202.43 6.58C202.31 6.58 202.15 6.59 202.15 6.72L202.15 7.45C202.15 7.62 201.70 7.63 201.42 7.63L199.08 7.63C198.97 7.63 198.95 7.63 198.95 7.45C198.94 6.75 198.93 6.06 198.93 5.46C198.93 5.12 198.93 3.71 199.01 3.71C200.24 3.71 202.75 3.75 202.75 3.81C202.75 3.99 202.71 4.83 202.71 4.89C202.71 5.04 202.78 5.10 202.96 5.10C203.15 5.10 203.22 5.08 203.22 4.94C203.22 3.85 203.28 3.36 203.28 3.09C203.28 2.91 203.20 2.90 203 2.90C202.80 2.90 202.80 2.95 202.78 3.11C202.76 3.25 202.83 3.25 201.92 3.25C201.31 3.25 199.16 3.29 198.39 3.29C197.90 3.29 196.97 3.25 196.87 3.25C196.74 3.25 196.69 3.30 196.69 3.49C196.69 3.72 196.76 3.74 196.92 3.74L197.58 3.74C197.64 3.74 197.71 4.79 197.71 5.71C197.71 5.80 197.76 8.27 197.76 9.83L197.76 11.17C197.76 11.84 197.74 12.18 197.71 12.18L196.85 12.18C196.63 12.18 196.57 12.21 196.57 12.39ZM221.91 7.91C221.91 11.40 224.28 12.89 226.87 12.89C228.76 12.89 230.76 11.89 230.76 11.58C230.76 11.12 230.78 10.68 230.78 10.33C230.78 9.81 230.79 9.56 230.92 9.56L231.35 9.56C231.49 9.56 231.50 9.39 231.50 9.30C231.50 9.18 231.49 9.06 231.35 9.06C231.13 9.06 230.76 9.10 230.09 9.10C229.64 9.10 228.90 9.07 228.21 9.06C228.07 9.06 228.07 9.24 228.07 9.35C228.07 9.45 228.10 9.56 228.23 9.56L229.45 9.56C229.49 9.56 229.54 9.87 229.54 10.33C229.54 10.82 229.53 11.41 229.50 11.65C229.49 11.76 228.84 12.39 227.26 12.39C225.02 12.39 223.43 10.29 223.43 7.94C223.43 5.42 224.98 3.54 226.98 3.54C228.87 3.54 230.05 4.87 230.05 5.03C230.05 5.15 229.99 6.12 229.99 6.17C229.99 6.31 230.03 6.36 230.30 6.36C230.50 6.36 230.57 6.33 230.57 6.15C230.57 5.43 230.61 3.75 230.61 3.56C230.61 3.36 230.51 3.33 230.30 3.33C230.08 3.33 230.05 3.39 230.05 3.56L230.05 3.91C230.05 3.99 230.01 4.02 229.88 3.92C229.60 3.72 228.61 3.08 227.04 3.08C224.20 3.08 221.91 4.79 221.91 7.91ZM239.54 3.51C239.54 3.72 239.61 3.79 239.81 3.79L240.62 3.77C240.72 3.77 240.76 6.61 240.76 8.55L240.76 10.42C240.76 11.30 240.74 12.18 240.70 12.18L240.10 12.18C239.88 12.18 239.81 12.19 239.81 12.39C239.81 12.63 239.85 12.68 240.04 12.68C240.17 12.68 241.00 12.64 241.42 12.64C241.84 12.64 242.61 12.68 242.93 12.68C243.10 12.68 243.12 12.61 243.12 12.40C243.12 12.24 243.10 12.18 242.93 12.18L242.12 12.18C242.05 12.18 241.96 9.18 241.96 8.37C241.96 8.30 241.96 8.26 242.07 8.26C242.47 8.26 243.07 8.27 243.36 8.27C245.60 8.32 245.74 10.00 245.74 11.68L245.74 12.49C245.74 12.61 245.80 12.64 245.90 12.64C245.90 12.64 247.34 12.68 247.81 12.68C247.98 12.68 248.04 12.64 248.04 12.53C248.04 12.24 247.98 12.18 247.83 12.18L247.18 12.18C247.09 12.18 247.06 12.14 247.03 11.31C246.95 8.99 245.57 8.34 244.66 8.05C244.52 8.01 244.55 8.01 244.66 7.95C245.25 7.69 246.57 6.94 246.57 5.63C246.57 3.63 244.87 3.21 243.47 3.21C243.15 3.21 241.86 3.29 241.44 3.29C241.02 3.29 240.04 3.26 239.82 3.26C239.64 3.26 239.54 3.28 239.54 3.51ZM241.96 7.80L241.96 4.40C241.96 4.05 241.99 3.68 242.03 3.68C242.24 3.65 242.52 3.65 242.75 3.65C244.05 3.65 245.29 4.47 245.29 5.82C245.29 6.99 244.75 7.57 244.09 7.88C244.05 7.90 244.01 7.90 243.94 7.90C243.46 7.88 242.75 7.88 242.14 7.87C241.98 7.87 241.96 7.85 241.96 7.80ZM255.51 12.39C255.51 12.63 255.54 12.68 255.74 12.68C256.06 12.68 257.03 12.64 257.45 12.64C257.87 12.64 262.37 12.68 262.70 12.68C262.82 12.68 262.98 12.66 262.98 12.49C262.98 12.07 263.02 11.23 263.02 10.53C263.02 10.39 262.86 10.39 262.74 10.39C262.63 10.39 262.50 10.39 262.50 10.51C262.49 11.06 262.49 11.41 262.46 11.76C262.43 12.01 262.43 12.04 262.33 12.04C262.18 12.04 259.55 12.08 258.05 12.08C257.98 12.08 257.94 10.11 257.89 8.26C257.89 8.06 257.94 8.09 258.08 8.09L260.36 8.09C261.06 8.09 261.09 8.20 261.09 8.30L261.09 9.00C261.09 9.14 261.27 9.14 261.38 9.14C261.48 9.14 261.60 9.13 261.60 9.02C261.60 8.83 261.58 8.33 261.58 7.83C261.58 7.32 261.60 6.83 261.60 6.71C261.60 6.59 261.46 6.58 261.37 6.58C261.25 6.58 261.09 6.59 261.09 6.72L261.09 7.45C261.09 7.62 260.64 7.63 260.36 7.63L258.02 7.63C257.91 7.63 257.89 7.63 257.89 7.45C257.88 6.75 257.87 6.06 257.87 5.46C257.87 5.12 257.87 3.71 257.95 3.71C259.18 3.71 261.69 3.75 261.69 3.81C261.69 3.99 261.65 4.83 261.65 4.89C261.65 5.04 261.72 5.10 261.90 5.10C262.09 5.10 262.16 5.08 262.16 4.94C262.16 3.85 262.22 3.36 262.22 3.09C262.22 2.91 262.14 2.90 261.94 2.90C261.74 2.90 261.74 2.95 261.72 3.11C261.70 3.25 261.77 3.25 260.86 3.25C260.25 3.25 258.10 3.29 257.33 3.29C256.84 3.29 255.91 3.25 255.81 3.25C255.68 3.25 255.63 3.30 255.63 3.49C255.63 3.72 255.70 3.74 255.86 3.74L256.52 3.74C256.58 3.74 256.65 4.79 256.65 5.71C256.65 5.80 256.70 8.27 256.70 9.83L256.70 11.17C256.70 11.84 256.68 12.18 256.65 12.18L255.79 12.18C255.57 12.18 255.51 12.21 255.51 12.39ZM270.84 12.39C270.84 12.63 270.84 12.68 271.04 12.68C271.21 12.68 271.53 12.64 272.10 12.64C272.72 12.64 273.27 12.68 273.42 12.68C273.59 12.68 273.59 12.61 273.59 12.40C273.59 12.24 273.59 12.18 273.42 12.18L272.34 12.18C272.34 12.18 272.33 12.18 272.33 12.17C272.34 11.87 273.11 9.90 273.46 9.02C273.53 8.83 273.55 8.79 273.76 8.79L276.58 8.79C276.72 8.79 276.72 8.81 276.79 9.03C277.06 9.77 277.77 11.89 277.77 12.17C277.77 12.18 277.76 12.18 277.76 12.18L276.99 12.18C276.77 12.18 276.75 12.19 276.75 12.39C276.75 12.63 276.77 12.68 276.93 12.68C277.26 12.68 278.12 12.64 278.54 12.64C278.96 12.64 279.64 12.68 279.85 12.68C279.99 12.68 280 12.61 280 12.40C280 12.24 279.99 12.18 279.85 12.18L279.36 12.18C279.26 12.18 278.24 9.34 277.68 7.78L276.00 3.07C275.98 3.00 275.91 2.94 275.83 2.94C275.70 2.94 275.60 3.16 275.52 3.35C275.37 3.71 275.13 3.84 275.02 4.13L273.53 7.57C273.35 8.01 271.64 12.18 271.52 12.18L271.10 12.18C270.87 12.18 270.84 12.19 270.84 12.39ZM273.74 8.33C273.74 8.30 273.77 8.23 273.81 8.13L275.18 4.77C275.23 4.66 275.25 4.61 275.28 4.61C275.30 4.61 275.31 4.63 275.35 4.77L276.51 8.18C276.54 8.25 276.56 8.29 276.56 8.32C276.56 8.36 276.53 8.37 276.43 8.37L273.92 8.37C273.74 8.37 273.74 8.34 273.74 8.33ZM286.09 5.01C286.09 5.17 286.27 5.17 286.40 5.17C286.55 5.17 286.59 5.15 286.61 4.97L286.72 3.89C286.73 3.81 287.28 3.75 288.04 3.75L290.02 3.75C290.08 3.75 290.11 4.35 290.11 4.97C290.11 6.43 290.05 12.18 289.93 12.18L289.06 12.18C288.83 12.18 288.79 12.19 288.79 12.39C288.79 12.63 288.81 12.68 289.00 12.68C289.32 12.68 290.30 12.64 290.72 12.64C291.14 12.64 292.08 12.68 292.40 12.68C292.57 12.68 292.60 12.61 292.60 12.40C292.60 12.24 292.57 12.18 292.40 12.18L291.41 12.18C291.38 12.18 291.38 11.76 291.38 11.31C291.38 9.56 291.47 5.96 291.47 5.92C291.48 5.18 291.48 3.75 291.58 3.75L293.19 3.75C293.90 3.75 294.73 3.78 294.73 3.85C294.73 3.99 294.69 4.90 294.69 4.97C294.69 5.12 294.76 5.17 294.94 5.17C295.13 5.17 295.20 5.17 295.20 5.03C295.20 3.93 295.26 3.40 295.26 3.14C295.26 2.94 295.18 2.94 294.98 2.94C294.83 2.94 294.77 2.98 294.76 3.16C294.76 3.23 294.11 3.28 293.27 3.28L288.27 3.28C287.62 3.28 286.80 3.28 286.80 3.21L286.80 3.07C286.80 2.94 286.68 2.94 286.58 2.94C286.36 2.94 286.33 3.00 286.31 3.19C286.26 3.89 286.09 4.97 286.09 5.01ZM312.68 12.39C312.68 12.63 312.68 12.68 312.87 12.68C313.04 12.68 313.36 12.64 313.94 12.64C314.55 12.64 315.10 12.68 315.25 12.68C315.42 12.68 315.42 12.61 315.42 12.40C315.42 12.24 315.42 12.18 315.25 12.18L314.17 12.18C314.17 12.18 314.16 12.18 314.16 12.17C314.17 11.87 314.94 9.90 315.29 9.02C315.36 8.83 315.38 8.79 315.59 8.79L318.42 8.79C318.56 8.79 318.56 8.81 318.63 9.03C318.89 9.77 319.61 11.89 319.61 12.17C319.61 12.18 319.59 12.18 319.59 12.18L318.82 12.18C318.60 12.18 318.58 12.19 318.58 12.39C318.58 12.63 318.60 12.68 318.77 12.68C319.09 12.68 319.96 12.64 320.38 12.64C320.80 12.64 321.47 12.68 321.68 12.68C321.82 12.68 321.83 12.61 321.83 12.40C321.83 12.24 321.82 12.18 321.68 12.18L321.19 12.18C321.09 12.18 320.07 9.34 319.51 7.78L317.83 3.07C317.81 3.00 317.74 2.94 317.66 2.94C317.53 2.94 317.44 3.16 317.35 3.35C317.20 3.71 316.96 3.84 316.85 4.13L315.36 7.57C315.18 8.01 313.47 12.18 313.35 12.18L312.93 12.18C312.70 12.18 312.68 12.19 312.68 12.39ZM315.57 8.33C315.57 8.30 315.60 8.23 315.64 8.13L317.02 4.77C317.06 4.66 317.09 4.61 317.11 4.61C317.13 4.61 317.14 4.63 317.18 4.77L318.35 8.18C318.37 8.25 318.39 8.29 318.39 8.32C318.39 8.36 318.36 8.37 318.26 8.37L315.76 8.37C315.57 8.37 315.57 8.34 315.57 8.33ZM329.38 7.91C329.38 11.40 331.74 12.89 334.33 12.89C336.22 12.89 338.23 11.89 338.23 11.58C338.23 11.12 338.24 10.68 338.24 10.33C338.24 9.81 338.25 9.56 338.38 9.56L338.81 9.56C338.95 9.56 338.97 9.39 338.97 9.30C338.97 9.18 338.95 9.06 338.81 9.06C338.59 9.06 338.23 9.10 337.55 9.10C337.11 9.10 336.36 9.07 335.68 9.06C335.54 9.06 335.54 9.24 335.54 9.35C335.54 9.45 335.57 9.56 335.69 9.56L336.91 9.56C336.95 9.56 337.01 9.87 337.01 10.33C337.01 10.82 336.99 11.41 336.97 11.65C336.95 11.76 336.31 12.39 334.73 12.39C332.49 12.39 330.89 10.29 330.89 7.94C330.89 5.42 332.44 3.54 334.45 3.54C336.34 3.54 337.51 4.87 337.51 5.03C337.51 5.15 337.46 6.12 337.46 6.17C337.46 6.31 337.50 6.36 337.76 6.36C337.96 6.36 338.03 6.33 338.03 6.15C338.03 5.43 338.07 3.75 338.07 3.56C338.07 3.36 337.97 3.33 337.76 3.33C337.54 3.33 337.51 3.39 337.51 3.56L337.51 3.91C337.51 3.99 337.47 4.02 337.34 3.92C337.06 3.72 336.07 3.08 334.50 3.08C331.66 3.08 329.38 4.79 329.38 7.91ZM346.58 12.39C346.58 12.63 346.58 12.68 346.78 12.68C346.95 12.68 347.27 12.64 347.84 12.64C348.46 12.64 349.01 12.68 349.16 12.68C349.33 12.68 349.33 12.61 349.33 12.40C349.33 12.24 349.33 12.18 349.16 12.18L348.08 12.18C348.08 12.18 348.07 12.18 348.07 12.17C348.08 11.87 348.85 9.90 349.20 9.02C349.27 8.83 349.29 8.79 349.50 8.79L352.32 8.79C352.46 8.79 352.46 8.81 352.53 9.03C352.80 9.77 353.51 11.89 353.51 12.17C353.51 12.18 353.50 12.18 353.50 12.18L352.73 12.18C352.51 12.18 352.49 12.19 352.49 12.39C352.49 12.63 352.51 12.68 352.67 12.68C353.00 12.68 353.86 12.64 354.28 12.64C354.70 12.64 355.38 12.68 355.59 12.68C355.73 12.68 355.74 12.61 355.74 12.40C355.74 12.24 355.73 12.18 355.59 12.18L355.10 12.18C355.00 12.18 353.98 9.34 353.42 7.78L351.74 3.07C351.72 3.00 351.65 2.94 351.57 2.94C351.44 2.94 351.34 3.16 351.26 3.35C351.11 3.71 350.87 3.84 350.76 4.13L349.27 7.57C349.09 8.01 347.38 12.18 347.26 12.18L346.84 12.18C346.61 12.18 346.58 12.19 346.58 12.39ZM349.48 8.33C349.48 8.30 349.51 8.23 349.55 8.13L350.92 4.77C350.97 4.66 350.99 4.61 351.02 4.61C351.04 4.61 351.05 4.63 351.09 4.77L352.25 8.18C352.28 8.25 352.30 8.29 352.30 8.32C352.30 8.36 352.27 8.37 352.17 8.37L349.66 8.37C349.48 8.37 349.48 8.34 349.48 8.33ZM363.36 12.39C363.36 12.63 363.40 12.68 363.59 12.68C363.92 12.68 364.67 12.64 365.39 12.64C366.04 12.64 366.84 12.68 367.07 12.68C367.23 12.68 367.26 12.61 367.26 12.40C367.26 12.24 367.23 12.18 367.07 12.18L366.10 12.18C366.00 12.18 365.97 9.55 365.97 7.76L365.97 5.87C365.97 5.14 366.00 3.70 366.10 3.70L367.01 3.70C367.23 3.70 367.26 3.68 367.26 3.49C367.26 3.25 367.23 3.19 367.07 3.19C366.74 3.19 366.07 3.23 365.41 3.23C364.60 3.23 363.89 3.19 363.66 3.19C363.48 3.19 363.41 3.21 363.41 3.44C363.41 3.68 363.50 3.70 363.66 3.70L364.59 3.70C364.63 3.70 364.70 4.79 364.70 5.71L364.70 7.08C364.70 8.92 364.69 12.18 364.57 12.18L363.65 12.18C363.43 12.18 363.36 12.19 363.36 12.39ZM375.16 12.39C375.16 12.63 375.17 12.68 375.37 12.68C375.55 12.68 375.93 12.64 376.54 12.64C377.17 12.64 377.73 12.68 378.06 12.68C378.22 12.68 378.22 12.61 378.22 12.40C378.22 12.24 378.22 12.18 378.06 12.18L376.85 12.18C376.81 12.18 376.80 11.54 376.80 10.79C376.80 9.46 376.81 7.48 376.81 5.99C376.81 5.25 376.81 4.84 376.82 4.28C376.82 4.02 376.89 4.14 377.02 4.28L383.91 12.66C383.99 12.75 384.08 12.89 384.19 12.89C384.30 12.89 384.37 12.77 384.37 12.54C384.37 12.39 384.54 6.65 384.55 4.48C384.55 4.06 384.58 3.70 384.61 3.70L385.24 3.70C385.46 3.70 385.52 3.68 385.52 3.49C385.52 3.25 385.52 3.19 385.32 3.19C385.13 3.19 384.69 3.23 384.13 3.23C383.52 3.23 382.72 3.19 382.62 3.19C382.45 3.19 382.45 3.26 382.45 3.47C382.45 3.64 382.45 3.70 382.62 3.70L383.92 3.70C383.94 3.70 383.94 4.33 383.94 4.44C383.94 5.85 383.96 8.33 383.96 9.70L383.96 10.29C383.96 10.57 383.95 10.65 383.73 10.37L378.04 3.39C377.93 3.25 377.90 3.19 377.73 3.19C377.65 3.19 377.27 3.23 376.96 3.23C376.67 3.23 375.59 3.19 375.40 3.19C375.23 3.19 375.20 3.26 375.20 3.47C375.20 3.64 375.23 3.70 375.40 3.70L376.31 3.70C376.31 4.17 376.26 8.53 376.19 10.79C376.17 11.69 376.18 12.18 376.07 12.18L375.42 12.18C375.20 12.18 375.16 12.19 375.16 12.39Z"></path></g></svg>